<mxfile host="app.diagrams.net" agent="Mozilla/5.0 (Windows NT 10.0; Win64; x64) AppleWebKit/537.36 (KHTML, like Gecko) Chrome/130.0.0.0 Safari/537.36" version="24.8.6">
  <diagram name="Page-1" id="QDY2JU02lNwK23vkRCUS">
    <mxGraphModel dx="882" dy="496" grid="0" gridSize="10" guides="1" tooltips="1" connect="1" arrows="1" fold="1" page="1" pageScale="1" pageWidth="850" pageHeight="1100" math="0" shadow="0">
      <root>
        <mxCell id="0" />
        <mxCell id="1" parent="0" />
        <mxCell id="gheUimRSWbBMyhANNGM8-3" value="" style="edgeStyle=orthogonalEdgeStyle;rounded=0;orthogonalLoop=1;jettySize=auto;html=1;" edge="1" parent="1" source="gheUimRSWbBMyhANNGM8-1" target="gheUimRSWbBMyhANNGM8-2">
          <mxGeometry relative="1" as="geometry" />
        </mxCell>
        <mxCell id="gheUimRSWbBMyhANNGM8-1" value="Start" style="strokeWidth=1;html=1;shape=mxgraph.flowchart.terminator;whiteSpace=wrap;" vertex="1" parent="1">
          <mxGeometry x="165" y="110" width="80" height="40" as="geometry" />
        </mxCell>
        <mxCell id="gheUimRSWbBMyhANNGM8-5" value="" style="edgeStyle=orthogonalEdgeStyle;rounded=0;orthogonalLoop=1;jettySize=auto;html=1;" edge="1" parent="1" source="gheUimRSWbBMyhANNGM8-2" target="gheUimRSWbBMyhANNGM8-4">
          <mxGeometry relative="1" as="geometry" />
        </mxCell>
        <mxCell id="gheUimRSWbBMyhANNGM8-2" value="Input Files" style="shape=parallelogram;html=1;strokeWidth=1;perimeter=parallelogramPerimeter;whiteSpace=wrap;rounded=1;arcSize=12;size=0.23;" vertex="1" parent="1">
          <mxGeometry x="265" y="110" width="90" height="40" as="geometry" />
        </mxCell>
        <mxCell id="gheUimRSWbBMyhANNGM8-7" value="" style="edgeStyle=orthogonalEdgeStyle;rounded=0;orthogonalLoop=1;jettySize=auto;html=1;" edge="1" parent="1" source="gheUimRSWbBMyhANNGM8-4" target="gheUimRSWbBMyhANNGM8-6">
          <mxGeometry relative="1" as="geometry" />
        </mxCell>
        <mxCell id="gheUimRSWbBMyhANNGM8-4" value="Fitur Ekstraksi" style="rounded=0;whiteSpace=wrap;html=1;" vertex="1" parent="1">
          <mxGeometry x="375" y="110" width="90" height="40" as="geometry" />
        </mxCell>
        <mxCell id="gheUimRSWbBMyhANNGM8-15" value="" style="edgeStyle=orthogonalEdgeStyle;rounded=0;orthogonalLoop=1;jettySize=auto;html=1;" edge="1" parent="1" source="gheUimRSWbBMyhANNGM8-6" target="gheUimRSWbBMyhANNGM8-8">
          <mxGeometry relative="1" as="geometry" />
        </mxCell>
        <mxCell id="gheUimRSWbBMyhANNGM8-6" value="Pembuatan Dataframe" style="rounded=0;whiteSpace=wrap;html=1;" vertex="1" parent="1">
          <mxGeometry x="485" y="110" width="90" height="40" as="geometry" />
        </mxCell>
        <mxCell id="gheUimRSWbBMyhANNGM8-16" value="" style="edgeStyle=orthogonalEdgeStyle;rounded=0;orthogonalLoop=1;jettySize=auto;html=1;" edge="1" parent="1" source="gheUimRSWbBMyhANNGM8-8" target="gheUimRSWbBMyhANNGM8-10">
          <mxGeometry relative="1" as="geometry" />
        </mxCell>
        <mxCell id="gheUimRSWbBMyhANNGM8-8" value="Pembuatan &lt;i&gt;Dataframe&lt;/i&gt;" style="rounded=0;whiteSpace=wrap;html=1;" vertex="1" parent="1">
          <mxGeometry x="595" y="110" width="90" height="40" as="geometry" />
        </mxCell>
        <mxCell id="gheUimRSWbBMyhANNGM8-13" value="" style="edgeStyle=orthogonalEdgeStyle;rounded=0;orthogonalLoop=1;jettySize=auto;html=1;" edge="1" parent="1" source="gheUimRSWbBMyhANNGM8-10" target="gheUimRSWbBMyhANNGM8-12">
          <mxGeometry relative="1" as="geometry" />
        </mxCell>
        <mxCell id="gheUimRSWbBMyhANNGM8-10" value="Pemisahan Dataset" style="rounded=0;whiteSpace=wrap;html=1;" vertex="1" parent="1">
          <mxGeometry x="595" y="170" width="90" height="40" as="geometry" />
        </mxCell>
        <mxCell id="gheUimRSWbBMyhANNGM8-18" value="" style="edgeStyle=orthogonalEdgeStyle;rounded=0;orthogonalLoop=1;jettySize=auto;html=1;" edge="1" parent="1" source="gheUimRSWbBMyhANNGM8-12" target="gheUimRSWbBMyhANNGM8-17">
          <mxGeometry relative="1" as="geometry" />
        </mxCell>
        <mxCell id="gheUimRSWbBMyhANNGM8-12" value="SMOTE" style="rounded=0;whiteSpace=wrap;html=1;" vertex="1" parent="1">
          <mxGeometry x="445" y="170" width="90" height="40" as="geometry" />
        </mxCell>
        <mxCell id="gheUimRSWbBMyhANNGM8-17" value="&lt;i&gt;Dataframe&lt;/i&gt;" style="shape=parallelogram;html=1;strokeWidth=1;perimeter=parallelogramPerimeter;whiteSpace=wrap;rounded=1;arcSize=12;size=0.23;" vertex="1" parent="1">
          <mxGeometry x="305" y="170" width="90" height="40" as="geometry" />
        </mxCell>
        <mxCell id="gheUimRSWbBMyhANNGM8-19" value="End" style="strokeWidth=1;html=1;shape=mxgraph.flowchart.terminator;whiteSpace=wrap;" vertex="1" parent="1">
          <mxGeometry x="165" y="170" width="80" height="40" as="geometry" />
        </mxCell>
        <mxCell id="gheUimRSWbBMyhANNGM8-21" style="edgeStyle=orthogonalEdgeStyle;rounded=0;orthogonalLoop=1;jettySize=auto;html=1;entryX=1;entryY=0.5;entryDx=0;entryDy=0;entryPerimeter=0;" edge="1" parent="1" source="gheUimRSWbBMyhANNGM8-17" target="gheUimRSWbBMyhANNGM8-19">
          <mxGeometry relative="1" as="geometry" />
        </mxCell>
      </root>
    </mxGraphModel>
  </diagram>
</mxfile>
